<svg xmlns="http://www.w3.org/2000/svg" xmlns:xlink="http://www.w3.org/1999/xlink" version="1.1" x="0px" y="0px" viewBox="0 0 90 112.5" style="enable-background:new 0 0 90 90;" xml:space="preserve"><path d="M25.4233398,70.5512695c2.4785156,0,4.4946289-2.0161133,4.4946289-4.4946289V46.543457h4.293457v8.4101563  c0,0.0064087,0.0009766,0.0126343,0.0009766,0.019043h-0.0009766l0.2715454,14.222168h-2.9365845v11.4282227  c-2.0209961,1.1801758-3.4248047,3.1914063-3.8027344,5.4912109l-0.190918,1.1621094h15.8994141l-0.190918-1.1621094  c-0.378418-2.2998047-1.7822266-4.3105469-3.8027344-5.4912109V69.1948242h-2.9747925l-0.1497192-7.8425903  C38.3010254,64.0090942,41.447998,65.7421875,45,65.7421875s6.6989746-1.7330933,8.6660156-4.3899536l-0.1497192,7.8425903  h-2.9747925v11.4282227c-2.0205078,1.1801758-3.4243164,3.190918-3.8027344,5.4912109l-0.190918,1.1621094h15.8994141  l-0.190918-1.1621094c-0.378418-2.2998047-1.7822266-4.3105469-3.8027344-5.4912109V69.1948242h-2.9365845l0.2715454-14.222168  h-0.0009766c0-0.0064087,0.0009766-0.0126343,0.0009766-0.019043V46.543457h4.2929688v19.5131836  c0,2.4785156,2.0166016,4.4946289,4.4951172,4.4946289s4.4951172-2.0161133,4.4951172-4.4946289V37.7626953  c0-4.8417969-3.9389648-8.7807617-8.7807617-8.7807617h-1.1616211V16.8525391  c0-7.7905273-6.3383789-14.1289063-14.1293945-14.1289063S30.8706055,9.0620117,30.8706055,16.8525391v12.1293945h-1.1616211  c-4.8417969,0-8.7807617,3.9389648-8.7807617,8.7807617v28.2939453  C20.9282227,68.5351563,22.9448242,70.5512695,25.4233398,70.5512695z M37.4584961,71.1948242v10.6567383l0.5664063,0.2724609  c1.362793,0.65625,2.4077148,1.7915039,2.9423828,3.1523438H30.0371094c0.534668-1.3608398,1.5795898-2.4960938,2.9428711-3.1523438  l0.5664063-0.2724609V71.1948242H37.4584961z M56.4536133,71.1948242v10.6567383l0.5664063,0.2724609  c1.362793,0.65625,2.4077148,1.7915039,2.9423828,3.1523438H49.0327148c0.534668-1.3608398,1.5791016-2.4960938,2.9423828-3.1523438  l0.5664063-0.2724609V71.1948242H56.4536133z M67.0717773,61.5444336h-2.8618164v2h2.8618164v2.512207  c0,1.3754883-1.1191406,2.4946289-2.4951172,2.4946289s-2.4951172-1.1191406-2.4951172-2.4946289v-19.697876  c1.9932861-0.4146729,3.7409668-1.5064697,4.9902344-3.0239868V61.5444336z M32.8706055,16.8525391  c0-6.6879883,5.4414063-12.1289063,12.1293945-12.1289063s12.1293945,5.440918,12.1293945,12.1289063v12.1293945H32.8706055  V16.8525391z M29.7089844,30.9819336h30.5820313c3.7387695,0,6.7807617,3.0419922,6.7807617,6.7807617  s-3.0419922,6.7807617-6.7807617,6.7807617h-6.5024414v10.3911133l-0.0006104,0.0305786  C53.7816162,59.8059692,49.8422852,63.7421875,45,63.7421875s-8.7816162-3.9362183-8.7879639-8.7770386l-0.0006104-0.0305786  V44.543457h-6.5024414c-3.7387695,0-6.7807617-3.0419922-6.7807617-6.7807617S25.9702148,30.9819336,29.7089844,30.9819336z   M22.9282227,63.5444336h2.8618164v-2h-2.8618164V43.3347778c1.2491455,1.517395,2.9967041,2.6090698,4.9897461,3.0238647v19.697998  c0,1.3754883-1.1191406,2.4946289-2.4946289,2.4946289c-1.3759766,0-2.4951172-1.1191406-2.4951172-2.4946289V63.5444336z"/><path d="M36.2568359,24.7456055h17.4863281V13.7001953H36.2568359V24.7456055z M38.2568359,15.7001953h13.4863281v7.0454102  H38.2568359V15.7001953z"/><rect x="41.2666016" y="18.2226563" width="7.4667969" height="2"/><text x="0" y="105" fill="#000000" font-size="5px" font-weight="bold" font-family="'Helvetica Neue', Helvetica, Arial-Unicode, Arial, Sans-serif">Created by iconcheese</text><text x="0" y="110" fill="#000000" font-size="5px" font-weight="bold" font-family="'Helvetica Neue', Helvetica, Arial-Unicode, Arial, Sans-serif">from the Noun Project</text></svg>