<svg xmlns="http://www.w3.org/2000/svg" xmlns:xlink="http://www.w3.org/1999/xlink" version="1.1" x="0px" y="0px" viewBox="0 0 90 112.5" style="enable-background:new 0 0 90 90;" xml:space="preserve"><path d="M58.4868164,21.105957v-9.2993164c0-1.5385742-1.2519531-2.7905273-2.7910156-2.7905273H34.3041992  c-1.5390625,0-2.7910156,1.2519531-2.7910156,2.7905273v9.2993164c0,1.5390625,1.2519531,2.7910156,2.7910156,2.7910156h21.3916016  C57.2348633,23.8969727,58.4868164,22.6450195,58.4868164,21.105957z M33.5131836,21.105957v-9.2993164  c0-0.4360352,0.3549805-0.7905273,0.7910156-0.7905273h21.3916016c0.4360352,0,0.7910156,0.3544922,0.7910156,0.7905273v9.2993164  c0,0.4360352-0.3549805,0.7910156-0.7910156,0.7910156H34.3041992  C33.8681641,21.8969727,33.5131836,21.5419922,33.5131836,21.105957z"/><rect x="36.699707" y="17.5727539" width="7.9125977" height="2"/><rect x="36.765625" y="13.4321289" width="4.159668" height="2"/><rect x="43.0219727" y="13.4321289" width="10.2124023" height="2"/><rect x="48.128418" y="17.4804688" width="5.105957" height="2"/><path d="M29.6416016,42.8408203c-3.6430664,0-6.6069336,2.9638672-6.6069336,6.6069336v7.4174805v1v2.8520508h5.5551758v-2  H25.034668v-0.8520508h5.6069336v-4.6293945h2.7802734v5.3491211h1.6821289v22.9599609  c0,2.4306641,1.9770508,4.4077148,4.4077148,4.4077148c2.4301758,0,4.4072266-1.9770508,4.4072266-4.4077148V58.5849609h2.1621094  v22.9599609c0,2.4306641,1.9770508,4.4077148,4.4072266,4.4077148c2.4306641,0,4.4077148-1.9770508,4.4077148-4.4077148V58.5849609  h1.6821289v-5.3491211h2.7802734v4.6293945h5.6069336v0.8520508h-3.5551758v2h5.5551758v-2.8520508v-1v-7.4174805  c0-3.6430664-2.9638672-6.6069336-6.6069336-6.6069336h-1v1.9208984H56.578125v-2.4277344h-6.1850586V31.8540039h2.8447266  c7.168457,0,13-5.831543,13-13v-1.8066406c0-7.168457-5.831543-13-13-13H36.762207c-7.168457,0-13,5.831543-13,13v1.8066406  c0,7.168457,5.831543,13,13,13h2.8447266v10.4799805H33.421875v2.4277344h-2.7802734v-1.9208984H29.6416016z M28.6416016,55.8652344  H25.034668v-6.4174805c0-2.1967773,1.5458984-4.0395508,3.6069336-4.4975586V55.8652344z M61.3583984,44.9501953  c2.0610352,0.4580078,3.6069336,2.3007813,3.6069336,4.4975586v6.4174805h-3.6069336V44.9501953z M56.578125,46.7617188h2.7802734  v4.4741211H56.578125V46.7617188z M41.9189453,81.5449219c0,1.3276367-1.0800781,2.4077148-2.4072266,2.4077148  c-1.3276367,0-2.4077148-1.0800781-2.4077148-2.4077148V58.5849609h4.8149414V81.5449219z M52.8959961,81.5449219  c0,1.3276367-1.0800781,2.4077148-2.4077148,2.4077148c-1.3271484,0-2.4072266-1.0800781-2.4072266-2.4077148V58.5849609h4.8149414  V81.5449219z M36.762207,29.8540039c-6.0654297,0-11-4.9345703-11-11v-1.8066406c0-6.0654297,4.9345703-11,11-11H53.237793  c6.0654297,0,11,4.9345703,11,11v1.8066406c0,6.0654297-4.9345703,11-11,11H36.762207z M48.3930664,31.8540039v10.4799805  h-6.7861328V31.8540039H48.3930664z M35.421875,44.3339844h19.15625v12.2509766h-19.15625V44.3339844z M33.421875,46.7617188  v4.4741211h-2.7802734v-4.4741211H33.421875z"/><text x="0" y="105" fill="#000000" font-size="5px" font-weight="bold" font-family="'Helvetica Neue', Helvetica, Arial-Unicode, Arial, Sans-serif">Created by iconcheese</text><text x="0" y="110" fill="#000000" font-size="5px" font-weight="bold" font-family="'Helvetica Neue', Helvetica, Arial-Unicode, Arial, Sans-serif">from the Noun Project</text></svg>