<svg xmlns="http://www.w3.org/2000/svg" xmlns:xlink="http://www.w3.org/1999/xlink" version="1.1" x="0px" y="0px" viewBox="0 0 90 112.5" style="enable-background:new 0 0 90 90;" xml:space="preserve"><polygon points="52.2128906,53.5688477 51.3046875,51.7866211 45,55.0004883 38.6953125,51.7866211 37.7871094,53.5688477   45,57.2456055 "/><polygon points="52.2128906,60.5249023 51.3046875,58.7426758 45,61.956543 38.6953125,58.7426758 37.7871094,60.5249023   45,64.2016602 "/><path d="M43.0087891,8.7275391h-6.1757813v7.4140625h6.1757813V8.7275391z M41.0087891,14.1416016h-2.1757813v-3.4140625h2.1757813  V14.1416016z"/><path d="M46.9912109,16.1416016h6.1757813V8.7275391h-6.1757813V16.1416016z M48.9912109,10.7275391h2.1757813v3.4140625h-2.1757813  V10.7275391z"/><path d="M25.7802734,26.3129883h6.7695313V45.96875h-3.1923828v3.8388672h-1.3378906v-1.8374023h-3.2460938  c-2.6767578,0-4.8544922,2.1777344-4.8544922,4.8540039v20.1142578h8.1005859V59.9614258h1.3378906v5.9326172l5.8652344,2.3000488  v17.1486816h-4.8652344v2h4.8652344h1h7.5791016V71.5584106L45,72.0283203l1.1982422-0.4699097v15.7843628h7.5791016h1h4.8652344v-2  h-4.8652344V68.1940918l5.8652344-2.3000488v-5.9326172h1.3378906v12.9770508h8.1005859V52.8242188  c0-2.6762695-2.1777344-4.8540039-4.8544922-4.8540039h-3.2460938v1.8374023h-1.3378906V45.96875h-3.1923828V26.3129883h6.7695313  c3.6904297,0,6.6923828-3.0024414,6.6923828-6.6928711s-3.0019531-6.6928711-6.6923828-6.6928711h-6.7695313V2.6572266H32.5498047  v10.2700195h-6.7695313c-3.6904297,0-6.6923828,3.0024414-6.6923828,6.6928711S22.0898438,26.3129883,25.7802734,26.3129883z   M26.0195313,70.9384766h-4.1005859V52.8242188c0-1.5737305,1.2802734-2.8540039,2.8544922-2.8540039h1.2460938V70.9384766z   M29.3574219,57.9614258h-1.3378906v-6.1538086h1.3378906V57.9614258z M63.9804688,49.9702148h1.2460938  c1.5742188,0,2.8544922,1.2802734,2.8544922,2.8540039v18.1142578h-4.1005859V49.9702148z M60.6425781,51.8076172h1.3378906  v6.1538086h-1.3378906V51.8076172z M57.4501953,14.9272461h6.7695313c2.5869141,0,4.6923828,2.1049805,4.6923828,4.6928711  s-2.1054688,4.6928711-4.6923828,4.6928711h-6.7695313V14.9272461z M41.8017578,85.3427734h-4.5791016V68.9783936  l4.5791016,1.7957153V85.3427734z M52.7773438,85.3427734h-4.5791016V70.7741089l4.5791016-1.7957153V85.3427734z   M34.5498047,4.6572266h20.9003906V45.96875H34.5498047V4.6572266z M58.6425781,47.96875v16.5610352L45,69.8798828  l-13.6425781-5.3500977V47.96875H58.6425781z M25.7802734,14.9272461h6.7695313v9.3857422h-6.7695313  c-2.5869141,0-4.6923828-2.1049805-4.6923828-4.6928711S23.1933594,14.9272461,25.7802734,14.9272461z"/><path d="M46,18.6523438h-2v6.9677734h-6.3154297l0.140625,1.1240234C38.2753906,30.3549805,41.3603516,33.0776367,45,33.0776367  s6.7246094-2.7226563,7.1748047-6.3334961l0.140625-1.1240234H46V18.6523438z M49.921875,27.6201172  C49.1884766,29.652832,47.2392578,31.0776367,45,31.0776367s-4.1884766-1.4248047-4.921875-3.4575195H49.921875z"/><text x="0" y="105" fill="#000000" font-size="5px" font-weight="bold" font-family="'Helvetica Neue', Helvetica, Arial-Unicode, Arial, Sans-serif">Created by iconcheese</text><text x="0" y="110" fill="#000000" font-size="5px" font-weight="bold" font-family="'Helvetica Neue', Helvetica, Arial-Unicode, Arial, Sans-serif">from the Noun Project</text></svg>