<svg xmlns="http://www.w3.org/2000/svg" xmlns:xlink="http://www.w3.org/1999/xlink" version="1.1" x="0px" y="0px" viewBox="0 0 90 112.5" style="enable-background:new 0 0 90 90;" xml:space="preserve"><path d="M19.4243164,29.7177734v4.6992188c0,1.6801758,1.3671875,3.0473633,3.0478516,3.0473633h0.3325195v21.8525391h-3.3798828  v8.2646484h7.9902344v-2h-5.9902344v-4.2646484h5.9902344v-2h-2.6103516V37.4643555h1.8411255  c-0.0090942,0.2095337-0.0359497,0.414978-0.0359497,0.6264648c0,7.1220703,5.2265015,13.1735229,12.4643555,15.3579102v4.5244141  h-0.9628906v-3.5058594H29.847168v27.449707h-2.3393555v4.4902344h12.9428711v-4.4902344h-2.3393555V59.9731445h0.9628906v0.3417969  c0,3.2675781,2.6582031,5.9257813,5.9257813,5.9257813s5.9257813-2.6582031,5.9257813-5.9257813v-0.3417969h0.9628906v21.9438477  h-2.3393555v4.4902344h12.9428711v-4.4902344H60.152832v-27.449707h-8.2641602v3.5058594h-0.9628906v-4.5244141  c7.237854-2.1843872,12.4643555-8.2358398,12.4643555-15.3579102c0-0.2114868-0.0268555-0.4169312-0.0359497-0.6264648h1.8411255  v21.8525391h-2.6103516v2h5.9902344v4.2646484h-5.9902344v2h7.9902344v-8.2646484h-3.3798828V37.4643555h3.3803711v-7.746582  c0-1.6801758-1.3671875-3.0473633-3.0478516-3.0473633h-9.4713135c-0.4208374-0.375061-0.861145-0.7327881-1.3213501-1.0705566  c1.003418-2.1495972,1.5333862-4.5512695,1.5333862-7.0026855c0-8.2734375-5.9521484-15.0043945-13.2685547-15.0043945  s-13.2685547,6.730957-13.2685547,15.0043945c0,2.451416,0.5299683,4.8530884,1.5333862,7.0026855  c-0.4602051,0.3377686-0.9005127,0.6954956-1.3213501,1.0705566H22.472168  C20.7915039,26.6704102,19.4243164,28.0375977,19.4243164,29.7177734z M31.847168,56.4672852h4.2641602v25.449707H31.847168  V56.4672852z M38.4506836,83.9169922v0.4902344h-8.9428711v-0.4902344H38.4506836z M53.8886719,56.4672852h4.2641602v25.449707  h-4.2641602V56.4672852z M60.4921875,83.9169922v0.4902344h-8.9428711v-0.4902344H60.4921875z M48.9257813,60.3149414  c0,2.1645508-1.7612305,3.9257813-3.9257813,3.9257813s-3.9257813-1.7612305-3.9257813-3.9257813v-6.366394  C42.3406372,54.1929321,43.6517944,54.3300781,45,54.3300781s2.6593628-0.137146,3.9257813-0.3815308V60.3149414z   M67.527832,28.6704102c0.5776367,0,1.0478516,0.4697266,1.0478516,1.0473633v5.746582h-5.4485474  c-0.4639893-2.5030518-1.5702515-4.8123779-3.1762085-6.7939453H67.527832z M45,5.5927734  c6.2133789,0,11.2685547,5.8339844,11.2685547,13.0043945c0,2.0637207-0.4459839,4.0720825-1.2518311,5.8928833  C52.1315308,22.8274536,48.6946411,21.8515625,45,21.8515625s-7.1315308,0.9758911-10.0166626,2.6384888  c-0.8058472-1.8208008-1.2518921-3.8291626-1.2518921-5.8928833C33.7314453,11.4267578,38.7866211,5.5927734,45,5.5927734z   M45,23.8515625c9.0375977,0,16.3901367,6.3876953,16.3901367,14.2392578S54.0375977,52.3300781,45,52.3300781  s-16.3901367-6.3876953-16.3901367-14.2392578S35.9624023,23.8515625,45,23.8515625z M26.8728638,35.4643555H22.472168  c-0.5776367,0-1.0478516-0.4697266-1.0478516-1.0473633v-4.6992188c0-0.5776367,0.4702148-1.0473633,1.0478516-1.0473633h7.5769043  C28.4431152,30.6519775,27.336853,32.9613037,26.8728638,35.4643555z"/><path d="M40.5239258,16.2543945c1.6083984,0,2.9165039-1.3081055,2.9165039-2.9165039s-1.3081055-2.9165039-2.9165039-2.9165039  s-2.9169922,1.3081055-2.9169922,2.9165039S38.9155273,16.2543945,40.5239258,16.2543945z M40.5239258,12.4213867  c0.5053711,0,0.9165039,0.4111328,0.9165039,0.9165039s-0.4111328,0.9165039-0.9165039,0.9165039  c-0.5058594,0-0.9169922-0.4111328-0.9169922-0.9165039S40.0180664,12.4213867,40.5239258,12.4213867z"/><path d="M49.4760742,16.2543945c1.6083984,0,2.9169922-1.3081055,2.9169922-2.9165039s-1.3085938-2.9165039-2.9169922-2.9165039  s-2.9165039,1.3081055-2.9165039,2.9165039S47.8676758,16.2543945,49.4760742,16.2543945z M49.4760742,12.4213867  c0.5058594,0,0.9169922,0.4111328,0.9169922,0.9165039s-0.4111328,0.9165039-0.9169922,0.9165039  c-0.5053711,0-0.9165039-0.4111328-0.9165039-0.9165039S48.9707031,12.4213867,49.4760742,12.4213867z"/><rect x="38.4013672" y="18.1757813" width="13.1972656" height="2"/><text x="0" y="105" fill="#000000" font-size="5px" font-weight="bold" font-family="'Helvetica Neue', Helvetica, Arial-Unicode, Arial, Sans-serif">Created by iconcheese</text><text x="0" y="110" fill="#000000" font-size="5px" font-weight="bold" font-family="'Helvetica Neue', Helvetica, Arial-Unicode, Arial, Sans-serif">from the Noun Project</text></svg>