<svg xmlns="http://www.w3.org/2000/svg" xmlns:xlink="http://www.w3.org/1999/xlink" version="1.1" x="0px" y="0px" viewBox="0 0 90 112.5" style="enable-background:new 0 0 90 90;" xml:space="preserve"><path d="M26.6777344,67.503418h-6.2832031v-4.5268555h7.1464844l2.0930786-14.1572876  c2.2977295,2.7438354,5.5042114,4.8515625,9.2340698,5.9708862v4.786499h-1.0878906v-3.652832h-8.5263672v28.6000977h-1.4375v2  H39.21875v-2h-1.4384766V61.5766602h1.0878906v1.3979492h12.2636719v-1.3979492h1.0878906v22.9472656H50.78125v2h11.4023438v-2  h-1.4375V55.9238281h-8.5263672v3.652832h-1.0878906v-4.786499c3.914856-1.1748657,7.2634277-3.4321289,9.5784912-6.3771362  l1.7232666,14.5635376h7.171875v4.5268555h-6.2832031v2h8.2832031v-8.5268555h-3.5214844V38.1240234h3.5214844v-8.0292969  c0-1.7275391-1.4052734-3.1333008-3.1328125-3.1333008h-9.8861694c-0.4917603-0.4390869-1.0111694-0.8529053-1.5545654-1.2425537  l-2.8200073-14.6363525C53.3623047,6.6748047,49.4882813,3.4760742,45,3.4760742s-8.3623047,3.1987305-9.2109375,7.605957  l-2.8209839,14.6368408c-0.543396,0.3897095-1.0628052,0.8034668-1.5545654,1.2425537h-9.8861694  c-1.7275391,0-3.1328125,1.4057617-3.1328125,3.1333008v4.8959961c0,1.7275391,1.4052734,3.1333008,3.1328125,3.1333008h0.3886719  v22.8525391h-3.5214844v8.5268555h8.2832031V67.503418z M35.7802734,84.5239258h-4.5263672V57.9238281h4.5263672V84.5239258z   M54.2197266,57.9238281h4.5263672v26.6000977h-4.5263672V57.9238281z M25.8144531,60.9765625h-1.8984375V38.1240234h2.0046997  c-0.0108032,0.2322388-0.039856,0.4602661-0.039856,0.6948242c0,2.7438965,0.7614746,5.3287964,2.0831299,7.6213989  L25.8144531,60.9765625z M49.1318359,60.9746094h-8.2636719v-5.6858521c1.3323975,0.260437,2.7120361,0.40802,4.1318359,0.40802  s2.7994385-0.147583,4.1318359-0.40802V60.9746094z M66.0839844,60.9765625h-1.8730469L62.4570313,46.152832l-0.2821655,0.0334473  c1.232666-2.2298584,1.9442749-4.7236938,1.9442749-7.3674316c0-0.2345581-0.0290527-0.4625854-0.039856-0.6948242h2.0046997  V60.9765625z M68.4726563,28.9614258c0.625,0,1.1328125,0.5083008,1.1328125,1.1333008v6.0292969h-5.7536621  c-0.4837036-2.6433105-1.657959-5.0790405-3.364624-7.1625977H68.4726563z M37.7529297,11.4604492  C38.4199219,7.9931641,41.46875,5.4760742,45,5.4760742s6.5800781,2.5170898,7.2480469,5.9848633l2.4770508,12.8525391  C51.87146,22.8166504,48.5532837,21.940918,45,21.940918c-3.5532227,0-6.8713989,0.8756714-9.7249756,2.3724976  L37.7529297,11.4604492z M45,23.940918c9.4394531,0,17.1191406,6.6743164,17.1191406,14.8779297  S54.4394531,53.6967773,45,53.6967773s-17.1191406-6.6743164-17.1191406-14.8779297S35.5605469,23.940918,45,23.940918z   M21.5273438,36.1240234c-0.625,0-1.1328125-0.5083008-1.1328125-1.1333008v-4.8959961  c0-0.625,0.5078125-1.1333008,1.1328125-1.1333008h7.9854736c-1.706665,2.0835571-2.8809204,4.5192871-3.364624,7.1625977  H21.5273438z"/><polygon points="46,19.4199219 46,13.9077148 50.4570313,13.9077148 50.4570313,11.9077148 39.5429688,11.9077148   39.5429688,13.9077148 44,13.9077148 44,19.4199219 "/><text x="0" y="105" fill="#000000" font-size="5px" font-weight="bold" font-family="'Helvetica Neue', Helvetica, Arial-Unicode, Arial, Sans-serif">Created by iconcheese</text><text x="0" y="110" fill="#000000" font-size="5px" font-weight="bold" font-family="'Helvetica Neue', Helvetica, Arial-Unicode, Arial, Sans-serif">from the Noun Project</text></svg>